# xmcd
#
# Track frame offsets:
# 150
# 19638
# 39097
# 57263
# 73625
# 97138
# 128943
# 135181
# 152035
# 173409
# 199233
# 213271
# 228748
# 238444
#
# Disc length: 3423 seconds
#
#
# Revision: 2
# Processed by: cddbd v1.5.1PL0 Copyright (c) Steve Scherf et al.
# Submitted via: FreeRIP 2.92 
#
DISCID=be0d5d0e
DTITLE=Mirek Cerny - Balicek Karet
DYEAR=1900
DGENRE=Folk
TTITLE0=Balicek karet (Texas Rangers)
TTITLE1=Dik za vas usmev
TTITLE2=Sto let
TTITLE3=Posledni vecere
TTITLE4=Zatim co ty spis
TTITLE5=Kluk a strom
TTITLE6=Tak vas tu vitam
TTITLE7=Carodejka Chvejka
TTITLE8=Carodej Kolodej
TTITLE9=Vitez
TTITLE10=Pterodaktylus
TTITLE11=Dukaz
TTITLE12=Jenik s Marenkou
TTITLE13=Nula
EXTD=
EXTT0=
EXTT1=
EXTT2=
EXTT3=
EXTT4=
EXTT5=
EXTT6=
EXTT7=
EXTT8=
EXTT9=
EXTT10=
EXTT11=
EXTT12=
EXTT13=
PLAYORDER=
